<?xml version="1.0" encoding="UTF-8"?>
<svg id="Layer_1" data-name="Layer 1" xmlns="http://www.w3.org/2000/svg" version="1.1" viewBox="0 0 84.1 84.1">
  <defs>
    <style>
      .cls-1 {
        fill: #000;
        stroke-width: 0px;
      }

      .cls-2 {
        fill: #fff;
      }

      .cls-2, .cls-3 {
        stroke: #000;
        stroke-miterlimit: 10;
        stroke-width: .1px;
      }

      .cls-4 {
        display: none;
      }

      .cls-3 {
        fill: none;
      }
    </style>
  </defs>
  <g class="cls-4">
    <g>
      <rect class="cls-2" x="-214" y="-214" width="512" height="512"/>
      <line class="cls-3" x1="-214" y1="282.1" x2="298.1" y2="282.1"/>
      <line class="cls-3" x1="-214" y1="266.1" x2="298.1" y2="266.1"/>
      <line class="cls-3" x1="-214" y1="250.1" x2="298.1" y2="250.1"/>
      <line class="cls-3" x1="-214" y1="234.1" x2="298.1" y2="234.1"/>
      <line class="cls-3" x1="-214" y1="218.1" x2="298.1" y2="218.1"/>
      <line class="cls-3" x1="-214" y1="202.1" x2="298.1" y2="202.1"/>
      <line class="cls-3" x1="-214" y1="186.1" x2="298.1" y2="186.1"/>
      <line class="cls-3" x1="-214" y1="170.1" x2="298.1" y2="170.1"/>
      <line class="cls-3" x1="-214" y1="154.1" x2="298.1" y2="154.1"/>
      <line class="cls-3" x1="-214" y1="138.1" x2="298.1" y2="138.1"/>
      <line class="cls-3" x1="-214" y1="122.1" x2="298.1" y2="122.1"/>
      <line class="cls-3" x1="-214" y1="106.1" x2="298.1" y2="106.1"/>
      <line class="cls-3" x1="-214" y1="90.1" x2="298.1" y2="90.1"/>
      <line class="cls-3" x1="-214" y1="74.1" x2="298.1" y2="74.1"/>
      <line class="cls-3" x1="-214" y1="58.1" x2="298.1" y2="58.1"/>
      <line class="cls-3" x1="-214" y1="42.1" x2="298.1" y2="42.1"/>
      <line class="cls-3" x1="-214" y1="26.1" x2="298.1" y2="26.1"/>
      <line class="cls-3" x1="-214" y1="10.1" x2="298.1" y2="10.1"/>
      <line class="cls-3" x1="-214" y1="-5.9" x2="298.1" y2="-5.9"/>
      <line class="cls-3" x1="-214" y1="-21.9" x2="298.1" y2="-21.9"/>
      <line class="cls-3" x1="-214" y1="-37.9" x2="298.1" y2="-37.9"/>
      <line class="cls-3" x1="-214" y1="-53.9" x2="298.1" y2="-53.9"/>
      <line class="cls-3" x1="-214" y1="-69.9" x2="298.1" y2="-69.9"/>
      <line class="cls-3" x1="-214" y1="-85.9" x2="298.1" y2="-85.9"/>
      <line class="cls-3" x1="-214" y1="-101.9" x2="298.1" y2="-101.9"/>
      <line class="cls-3" x1="-214" y1="-117.9" x2="298.1" y2="-117.9"/>
      <line class="cls-3" x1="-214" y1="-133.9" x2="298.1" y2="-133.9"/>
      <line class="cls-3" x1="-214" y1="-149.9" x2="298.1" y2="-149.9"/>
      <line class="cls-3" x1="-214" y1="-165.9" x2="298.1" y2="-165.9"/>
      <line class="cls-3" x1="-214" y1="-181.9" x2="298.1" y2="-181.9"/>
      <line class="cls-3" x1="-214" y1="-197.9" x2="298.1" y2="-197.9"/>
      <line class="cls-3" x1="282.1" y1="-214" x2="282.1" y2="298.1"/>
      <line class="cls-3" x1="266.1" y1="-214" x2="266.1" y2="298.1"/>
      <line class="cls-3" x1="250.1" y1="-214" x2="250.1" y2="298.1"/>
      <line class="cls-3" x1="234.1" y1="-214" x2="234.1" y2="298.1"/>
      <line class="cls-3" x1="218.1" y1="-214" x2="218.1" y2="298.1"/>
      <line class="cls-3" x1="202.1" y1="-214" x2="202.1" y2="298.1"/>
      <line class="cls-3" x1="186.1" y1="-214" x2="186.1" y2="298.1"/>
      <line class="cls-3" x1="170.1" y1="-214" x2="170.1" y2="298.1"/>
      <line class="cls-3" x1="154.1" y1="-214" x2="154.1" y2="298.1"/>
      <line class="cls-3" x1="138.1" y1="-214" x2="138.1" y2="298.1"/>
      <line class="cls-3" x1="122.1" y1="-214" x2="122.1" y2="298.1"/>
      <line class="cls-3" x1="106.1" y1="-214" x2="106.1" y2="298.1"/>
      <line class="cls-3" x1="90.1" y1="-214" x2="90.1" y2="298.1"/>
      <line class="cls-3" x1="74.1" y1="-214" x2="74.1" y2="298.1"/>
      <line class="cls-3" x1="58.1" y1="-214" x2="58.1" y2="298.1"/>
      <line class="cls-3" x1="42.1" y1="-214" x2="42.1" y2="298.1"/>
      <line class="cls-3" x1="26.1" y1="-214" x2="26.1" y2="298.1"/>
      <line class="cls-3" x1="10.1" y1="-214" x2="10.1" y2="298.1"/>
      <line class="cls-3" x1="-5.9" y1="-214" x2="-5.9" y2="298.1"/>
      <line class="cls-3" x1="-21.9" y1="-214" x2="-21.9" y2="298.1"/>
      <line class="cls-3" x1="-37.9" y1="-214" x2="-37.9" y2="298.1"/>
      <line class="cls-3" x1="-53.9" y1="-214" x2="-53.9" y2="298.1"/>
      <line class="cls-3" x1="-69.9" y1="-214" x2="-69.9" y2="298.1"/>
      <line class="cls-3" x1="-85.9" y1="-214" x2="-85.9" y2="298.1"/>
      <line class="cls-3" x1="-101.9" y1="-214" x2="-101.9" y2="298.1"/>
      <line class="cls-3" x1="-117.9" y1="-214" x2="-117.9" y2="298.1"/>
      <line class="cls-3" x1="-133.9" y1="-214" x2="-133.9" y2="298.1"/>
      <line class="cls-3" x1="-149.9" y1="-214" x2="-149.9" y2="298.1"/>
      <line class="cls-3" x1="-165.9" y1="-214" x2="-165.9" y2="298.1"/>
      <line class="cls-3" x1="-181.9" y1="-214" x2="-181.9" y2="298.1"/>
      <line class="cls-3" x1="-197.9" y1="-214" x2="-197.9" y2="298.1"/>
    </g>
  </g>
  <polygon class="cls-1" points="26.1 81.2 19 74.1 51 42.1 19 10.1 26.1 3 65.2 42.1 26.1 81.2"/>
</svg>